<?xml version="1.0" standalone="no"?>
<!DOCTYPE svg PUBLIC "-//W3C//DTD SVG 20010904//EN"
 "http://www.w3.org/TR/2001/REC-SVG-20010904/DTD/svg10.dtd">
<svg version="1.0" xmlns="http://www.w3.org/2000/svg"
 width="180.000000pt" height="180.000000pt" viewBox="0 0 180.000000 180.000000"
 preserveAspectRatio="xMidYMid meet">
<metadata>
Created by potrace 1.11, written by Peter Selinger 2001-2013
</metadata>
<g transform="translate(0.000000,180.000000) scale(0.100000,-0.100000)"
fill="#000000" stroke="none">
<path d="M710 1779 c-30 -5 -68 -12 -85 -17 l-30 -8 -10 -123 -10 -123 -90 71
c-49 39 -94 71 -98 71 -17 0 -93 -50 -121 -79 l-28 -29 58 -111 c31 -61 55
-113 53 -116 -3 -2 -56 12 -117 32 -100 34 -113 36 -127 22 -16 -15 -87 -171
-81 -176 5 -5 533 -173 543 -173 5 0 17 15 26 33 9 17 23 41 31 52 13 18 12
26 -9 78 l-24 58 49 -35 c28 -20 52 -36 55 -36 2 0 29 9 60 21 l55 20 0 290 0
289 -22 -1 c-13 -1 -48 -5 -78 -10z m60 -289 l0 -249 -30 -16 c-30 -16 -31
-16 -126 51 -52 36 -97 64 -100 62 -2 -3 11 -47 31 -97 40 -106 42 -120 17
-151 l-18 -22 -220 71 c-120 39 -224 73 -231 76 -15 5 23 104 43 112 8 3 77
-16 154 -42 78 -26 143 -45 146 -42 3 2 -27 68 -66 145 -38 77 -70 145 -70
150 0 5 18 22 40 37 46 32 34 38 180 -78 52 -41 98 -73 101 -71 3 2 7 68 8
146 1 79 5 146 9 150 8 7 49 14 100 17 l32 1 0 -250z"/>
<path d="M888 1504 c2 -159 6 -292 10 -295 4 -3 31 -11 61 -17 l54 -12 44 36
c24 20 47 34 50 31 3 -3 -3 -28 -12 -56 l-17 -51 33 -50 c18 -27 37 -50 44
-50 12 0 537 178 543 185 6 6 -90 186 -103 191 -6 3 -63 -17 -126 -44 -63 -27
-115 -48 -117 -47 -1 1 18 57 44 123 26 67 44 128 41 135 -6 17 -124 97 -141
97 -6 -1 -47 -41 -90 -90 -44 -50 -84 -90 -88 -90 -4 0 -8 58 -8 129 l0 129
-52 12 c-29 6 -80 14 -113 17 l-60 5 3 -288z"/>
<path d="M1655 1126 c-38 -13 -161 -52 -272 -87 l-202 -63 1 -66 0 -66 52 -34
51 -35 -61 -5 c-59 -5 -63 -7 -96 -51 l-35 -46 174 -231 175 -232 49 41 c67
56 114 116 102 132 -5 6 -38 48 -73 92 -35 44 -68 86 -74 94 -11 14 26 14 204
-5 l56 -6 21 63 c40 119 45 107 -73 169 -57 30 -106 59 -107 64 -1 5 48 24
108 41 l110 33 -3 58 c-3 48 -28 165 -35 164 -1 -1 -33 -11 -72 -24z"/>
<path d="M0 1006 c0 -100 2 -115 17 -120 10 -3 58 -14 106 -25 49 -10 91 -22
94 -24 3 -3 -45 -38 -107 -78 l-112 -72 7 -34 c8 -43 46 -143 54 -143 3 0 60
9 126 19 66 10 121 18 123 16 2 -2 -31 -47 -72 -100 l-76 -97 42 -47 c45 -49
106 -101 118 -101 9 0 340 445 340 457 0 6 -9 18 -21 29 -12 10 -28 31 -35 47
-15 27 -16 27 -82 21 -72 -7 -72 -7 -4 45 42 33 42 33 38 89 -2 32 -9 58 -17
62 -11 6 -447 145 -521 166 -16 5 -18 -5 -18 -110z"/>
<path d="M970 605 c-54 -23 -55 -24 -66 -80 -6 -30 -13 -58 -15 -60 -3 -2 -15
24 -27 59 -22 60 -24 62 -70 76 -26 8 -52 14 -59 15 -8 0 -288 -384 -337 -464
-6 -10 89 -66 160 -93 l40 -16 64 109 c35 60 67 109 71 109 4 0 17 -37 29 -82
12 -46 27 -103 34 -128 l12 -45 87 0 c63 0 90 4 96 13 5 8 14 55 21 105 22
151 20 148 61 91 19 -27 50 -73 69 -101 19 -29 38 -53 42 -53 16 0 134 60 162
83 l28 23 -163 232 c-90 127 -168 231 -174 231 -5 -1 -35 -12 -65 -24z"/>
</g>
</svg>
